# xmcd
# Copyright (C) 1995-1998 Ti Kan
#
# Track frame offsets:
#       150
#       17031
#       30543
#       52776
#       70981
#       84259
#       103318
#       119678
#       144383
#       166283
#       183596
#
# Disc length: 2814 seconds
#
# Revision: 0
# Processed by: cddbd v1.5PL3 Copyright (c) Steve Scherf et al.
# Submitted via: CD-Transfer v1.0
#
DISCID=900afc0b
DTITLE=Heinrich Müller - Footsteps
DYEAR=2004
DGENRE=
TTITLE0=African Feeling
TTITLE1=Attractions
TTITLE2=Main Station
TTITLE3=Tucker
TTITLE4=Olive Tree
TTITLE5=Feel So Young
TTITLE6=Confused
TTITLE7=Footsteps
TTITLE8=Justice
TTITLE9=She
TTITLE10=Letter From Africa
EXTD=
EXTT0=
EXTT1=
EXTT2=
EXTT3=
EXTT4=
EXTT5=
EXTT6=
EXTT7=
EXTT8=
EXTT9=
EXTT10=
PLAYORDER=
